# Blender 4.3.2
# www.blender.org
mtllib fish.mtl
g Cube_0_Mesh
v -0.052650 0.089200 -0.572850
v 0.052650 0.089200 -0.572860
v 0.078380 0.235820 -0.951880
v -0.078380 0.235820 -0.951880
v -0.078380 0.235820 -0.951880
v -0.078380 -0.235820 -0.951880
v -0.052650 -0.089200 -0.572860
v -0.052650 0.089200 -0.572850
v 0.052650 0.089200 -0.572860
v 0.052650 -0.089200 -0.572860
v 0.078380 -0.235820 -0.951880
v 0.078380 0.235820 -0.951880
v 0.078380 -0.235820 -0.951880
v -0.078380 -0.235820 -0.951880
v -0.078380 0.235820 -0.951880
v 0.078380 0.235820 -0.951880
v 0.123380 0.247890 -0.337160
v 0.123380 -0.247890 -0.337160
v 0.052650 -0.089200 -0.572860
v 0.052650 0.089200 -0.572860
v 0.123380 -0.247890 -0.337160
v -0.123380 -0.247890 -0.337160
v -0.052650 -0.089200 -0.572860
v 0.052650 -0.089200 -0.572860
v -0.123380 -0.247890 -0.337160
v -0.123380 0.247890 -0.337160
v -0.052650 0.089200 -0.572850
v -0.052650 -0.089200 -0.572860
v -0.078380 -0.235820 -0.951880
v 0.078380 -0.235820 -0.951880
v 0.052650 -0.089200 -0.572860
v -0.052650 -0.089200 -0.572860
v 0.123380 -0.247890 0.370190
v 0.123380 0.247890 0.370190
v 0.052650 0.076460 0.732120
v 0.052650 -0.076460 0.732120
v 0.123380 0.247890 0.370190
v -0.123380 0.247890 0.370190
v -0.052650 0.076460 0.732130
v 0.052650 0.076460 0.732120
v -0.123380 -0.247890 0.370190
v 0.123380 -0.247890 0.370190
v 0.052650 -0.076460 0.732120
v -0.052650 -0.076460 0.732120
v 0.052650 0.076460 0.732120
v -0.052650 0.076460 0.732130
v -0.052650 -0.076460 0.732120
v 0.052650 -0.076460 0.732120
v -0.123380 0.247890 -0.337160
v 0.123380 0.247890 -0.337160
v 0.052650 0.089200 -0.572860
v -0.052650 0.089200 -0.572850
v 0.123380 -0.247890 0.370190
v -0.123380 -0.247890 0.370190
v -0.123380 -0.247890 -0.337160
v 0.123380 -0.247890 -0.337160
v -0.123380 0.247890 0.370190
v -0.123380 -0.247890 0.370190
v -0.052650 -0.076460 0.732120
v -0.052650 0.076460 0.732130
v 0.123380 0.247890 -0.337160
v -0.123380 0.247890 -0.337160
v -0.123380 0.247890 0.370190
v 0.123380 0.247890 0.370190
v -0.123380 0.247890 -0.337160
v -0.123380 -0.247890 -0.337160
v -0.123380 -0.247890 0.370190
v -0.123380 0.247890 0.370190
v 0.123380 0.247890 -0.337160
v 0.123380 0.247890 0.370190
v 0.123380 -0.247890 0.370190
v 0.123380 -0.247890 -0.337160
vn -0.0000 0.9326 0.3608
vn -0.0000 0.9327 0.3608
vn -0.9977 -0.0000 0.0677
vn 0.9977 -0.0000 0.0677
vn -0.0000 -0.0000 -1.0000
vn 0.9578 -0.0000 -0.2874
vn -0.0000 -0.8295 -0.5585
vn -0.9578 -0.0000 -0.2874
vn -0.0000 -0.9326 0.3608
vn 0.9814 -0.0000 0.1918
vn -0.0000 0.9038 0.4281
vn -0.0000 0.9037 0.4281
vn -0.0000 -0.9037 0.4281
vn 0.0001 -0.0001 1.0000
vn -0.0000 -0.0000 1.0000
vn -0.0000 0.8295 -0.5585
vn -0.0001 0.8295 -0.5585
vn -0.0000 -1.0000 -0.0000
vn -0.9814 -0.0000 0.1918
vn -0.0000 1.0000 -0.0000
vn -1.0000 -0.0000 -0.0000
vn 1.0000 -0.0000 -0.0000
vt 0.342170 0.523530
vt 0.342170 0.549410
vt 0.442050 0.555730
vt 0.442050 0.517210
vt 0.557950 0.517210
vt 0.521920 0.423850
vt 0.478080 0.423850
vt 0.478080 0.649090
vt 0.521920 0.649090
vt 0.557950 0.555730
vt 0.439080 0.709560
vt 0.560920 0.709570
vt 0.727650 0.566790
vt 0.727650 0.506150
vt 0.657830 0.523530
vt 0.657830 0.549410
vt 0.560920 0.363370
vt 0.439080 0.363370
vt 0.560920 0.883400
vt 0.439080 0.883400
vt 0.481210 0.974030
vt 0.518790 0.974030
vt 0.098510 0.566790
vt 0.098510 0.506150
vt 0.000090 0.523530
vt 0.000090 0.549410
vt 0.901490 0.506150
vt 0.901490 0.566790
vt 0.999910 0.549410
vt 0.999910 0.523530
vt 0.481210 0.999910
vt 0.518790 0.999910
vt 0.272350 0.506150
vt 0.272350 0.566790
vt 0.439080 0.189540
vt 0.560920 0.189540
vt 0.518790 0.098910
vt 0.481210 0.098910
s 0
usemtl Material.001
f 1/1/1 2/2/1 3/3/1
f 1/1/2 3/3/2 4/4/2
f 5/4/3 6/5/3 7/6/3
f 5/4/3 7/6/3 8/7/3
f 9/8/4 10/9/4 11/10/4
f 9/8/4 11/10/4 12/3/4
f 13/10/5 14/5/5 15/4/5
f 13/10/5 15/4/5 16/3/5
f 17/11/6 18/12/6 19/9/6
f 17/11/6 19/9/6 20/8/6
f 21/13/7 22/14/7 23/15/7
f 21/13/7 23/15/7 24/16/7
f 25/17/8 26/18/8 27/7/8
f 25/17/8 27/7/8 28/6/8
f 29/5/9 30/10/9 31/16/9
f 29/5/9 31/16/9 32/15/9
f 33/19/10 34/20/10 35/21/10
f 33/19/10 35/21/10 36/22/10
f 37/23/11 38/24/11 39/25/11
f 37/23/12 39/25/12 40/26/12
f 41/27/13 42/28/13 43/29/13
f 41/27/13 43/29/13 44/30/13
f 45/21/14 46/31/14 47/32/14
f 45/21/15 47/32/15 48/22/15
f 49/33/16 50/34/16 51/2/16
f 49/33/17 51/2/17 52/1/17
f 53/28/18 54/27/18 55/14/18
f 53/28/18 55/14/18 56/13/18
f 57/35/19 58/36/19 59/37/19
f 57/35/19 59/37/19 60/38/19
f 61/34/20 62/33/20 63/24/20
f 61/34/20 63/24/20 64/23/20
f 65/18/21 66/17/21 67/36/21
f 65/18/21 67/36/21 68/35/21
f 69/11/22 70/20/22 71/19/22
f 69/11/22 71/19/22 72/12/22
